<svg width="187" height="50" viewBox="0 0 187 50" fill="none" xmlns="http://www.w3.org/2000/svg">
<path d="M20.5078 2.56873L38.7703 9.20623C38.7703 9.20623 39.1777 12.5686 39.1874 16.3687C39.1932 18.6175 39.1284 20.4322 38.6203 22.9687C37.5407 28.3584 36.3859 31.6795 32.6578 35.7187C28.9606 39.7245 24.8953 42.6562 20.5453 42.6562C16.1953 42.6562 11.7949 39.563 8.17032 35.7187C4.54576 31.8745 2.76785 28.4473 1.98282 22.9687C1.61722 20.4173 1.94725 18.6391 1.98281 16.3687C2.04185 12.5996 1.98282 9.20623 1.98282 9.20623L20.5078 2.56873Z" stroke="#3674B5" stroke-width="3"/>
<ellipse cx="20.4999" cy="48.5813" rx="8.625" ry="1.125" fill="#9BAEB1"/>
<circle cx="20.4871" cy="22.5938" r="11.625" stroke="url(#paint0_linear_924_10800)" stroke-width="3"/>
<path d="M23.1796 21.0874C23.0698 19.8423 22.2275 19.0183 20.8176 19.0183C18.9865 19.0183 17.9428 20.4282 17.9428 22.7903C17.9428 25.2805 19.0048 26.5623 20.7992 26.5623C22.1359 26.5623 22.9965 25.8298 23.1796 24.658L26.7135 24.6946C26.5304 26.9651 24.5346 29.6018 20.726 29.6018C17.0822 29.6018 14.3539 27.1848 14.3539 22.7903C14.3539 18.3774 17.1554 15.9788 20.726 15.9788C24.0219 15.9788 26.4206 17.8281 26.7135 21.0874H23.1796Z" fill="#2D5468"/>
<path d="M77.5557 40.4182V29.1222L75.7957 29.7302V40.0982H69.5877V31.1702H61.1077V25.6662H69.5877V19.4902H61.1077V13.9862H75.7957V23.6822L77.5557 23.0742V13.3462H83.7637V40.4182H77.5557ZM91.3797 40.4182H85.1397V13.3462H91.3797V40.4182ZM121.638 40.4182H115.014V29.0582L112.134 30.0182C111.91 32.0022 111.526 33.6662 110.95 34.9782C110.342 36.3222 109.638 37.3782 108.806 38.2102C107.974 38.9782 107.078 39.5542 106.118 39.9062C105.126 40.2262 104.134 40.4182 103.174 40.4182C102.054 40.4182 100.966 40.1942 99.878 39.7782C98.79 39.3302 97.798 38.6262 96.966 37.6022C96.07 36.5782 95.366 35.2022 94.854 33.4742C94.31 31.7782 94.054 29.6342 94.054 27.0422C94.054 24.4822 94.31 22.3062 94.854 20.5782C95.366 18.8822 96.07 17.5062 96.966 16.4822C97.798 15.4582 98.79 14.7542 99.878 14.3062C100.966 13.8902 102.054 13.6662 103.174 13.6662C104.134 13.6662 105.094 13.8582 106.086 14.1782C107.046 14.5302 107.974 15.1062 108.806 15.8742C109.606 16.7062 110.31 17.7622 110.918 19.0422C111.494 20.3862 111.91 22.0182 112.134 23.9702L115.014 23.0102V13.3462H121.638V40.4182ZM100.646 27.0422C100.646 28.7062 100.71 30.0182 100.87 31.0422C100.998 32.0662 101.19 32.8662 101.446 33.4422C101.67 34.0182 101.958 34.4022 102.278 34.5942C102.566 34.8182 102.854 34.9142 103.174 34.9142C103.43 34.9142 103.718 34.8182 104.038 34.5942C104.326 34.4022 104.614 34.0182 104.87 33.4422C105.094 32.8982 105.286 32.0982 105.446 31.0422C105.574 30.0182 105.67 28.6742 105.67 27.0102C105.67 25.3782 105.574 24.0342 105.446 23.0102C105.286 21.9862 105.094 21.1862 104.87 20.6102C104.614 20.0662 104.326 19.6822 104.038 19.4582C103.718 19.2662 103.43 19.1702 103.174 19.1702C102.854 19.1702 102.566 19.2662 102.278 19.4582C101.958 19.6822 101.67 20.0662 101.446 20.6422C101.19 21.2182 100.998 22.0182 100.87 23.0422C100.71 24.0662 100.646 25.4102 100.646 27.0422ZM152.037 13.9862V19.4902H142.693C142.629 20.0342 142.565 20.5462 142.501 21.0262C142.373 21.5382 142.245 22.0182 142.085 22.4982L153.477 27.7462L150.213 32.6422L139.077 27.3622C137.797 28.6422 136.229 29.7302 134.341 30.6582C132.421 31.6182 130.181 32.3862 127.557 32.9622L124.837 27.8102C128.421 27.1382 131.109 26.1142 132.901 24.7382C134.693 23.3942 135.717 21.6342 136.005 19.4902H126.213V13.9862H152.037ZM125.285 34.9142H135.813V30.6262H142.437V34.9142H152.965V40.4182H125.285V34.9142ZM173.731 27.0422C173.731 29.6342 173.443 31.7782 172.931 33.4742C172.355 35.2022 171.651 36.5782 170.819 37.6022C169.923 38.6262 168.963 39.3302 167.875 39.7782C166.787 40.1942 165.699 40.4182 164.611 40.4182C163.491 40.4182 162.403 40.1942 161.315 39.7782C160.227 39.3302 159.235 38.6262 158.403 37.6022C157.507 36.5782 156.803 35.2022 156.291 33.4742C155.747 31.7782 155.491 29.6342 155.491 27.0422C155.491 24.4822 155.747 22.3062 156.291 20.5782C156.803 18.8822 157.507 17.5062 158.403 16.4822C159.235 15.4582 160.227 14.7542 161.315 14.3062C162.403 13.8902 163.491 13.6662 164.611 13.6662C165.699 13.6662 166.787 13.8902 167.875 14.3062C168.963 14.7542 169.923 15.4582 170.819 16.4822C171.651 17.5062 172.355 18.8822 172.931 20.5782C173.443 22.3062 173.731 24.4822 173.731 27.0422ZM182.115 22.7222H184.899V28.2262H182.115V40.4182H175.491V13.3462H182.115V22.7222ZM162.083 27.0422C162.083 28.7062 162.147 30.0182 162.307 31.0422C162.435 32.0662 162.627 32.8662 162.883 33.4422C163.107 34.0182 163.395 34.4022 163.715 34.5942C164.003 34.8182 164.291 34.9142 164.611 34.9142C164.867 34.9142 165.155 34.8182 165.475 34.5942C165.763 34.4022 166.051 34.0182 166.307 33.4422C166.531 32.8982 166.723 32.0982 166.883 31.0422C167.011 30.0182 167.107 28.6742 167.107 27.0102C167.107 25.3782 167.011 24.0342 166.883 23.0102C166.723 21.9862 166.531 21.1862 166.307 20.6102C166.051 20.0662 165.763 19.6822 165.475 19.4582C165.155 19.2662 164.867 19.1702 164.611 19.1702C164.291 19.1702 164.003 19.2662 163.715 19.4582C163.395 19.6822 163.107 20.0662 162.883 20.6422C162.627 21.2182 162.435 22.0182 162.307 23.0422C162.147 24.0662 162.083 25.4102 162.083 27.0422Z" fill="#3674B5"/>
<defs>
<linearGradient id="paint0_linear_924_10800" x1="20.4871" y1="9.46875" x2="20.4871" y2="35.7188" gradientUnits="userSpaceOnUse">
<stop stop-color="#D1F8EF"/>
<stop offset="0.5" stop-color="#578FCA"/>
<stop offset="1" stop-color="#A1E3F9"/>
</linearGradient>
</defs>
</svg>
