<svg width="136" height="137" viewBox="0 0 136 137" fill="none" xmlns="http://www.w3.org/2000/svg">
<path d="M67.8938 21L104.419 34.275C104.419 34.275 105.234 40.9998 105.253 48.6C105.265 53.0975 105.135 56.7269 104.119 61.8C101.96 72.5793 99.65 79.2215 92.1938 87.3C84.7995 95.3115 76.6688 101.175 67.9688 101.175C59.2688 101.175 50.4679 94.9884 43.2188 87.3C35.9697 79.6116 32.4139 72.7572 30.8438 61.8C30.1126 56.6972 30.7727 53.1408 30.8438 48.6C30.9619 41.0618 30.8438 34.275 30.8438 34.275L67.8938 21Z" stroke="#141414" stroke-opacity="0.3" stroke-width="6"/>
<ellipse cx="67.8782" cy="113.425" rx="17.25" ry="2.25" fill="#141414" fill-opacity="0.3"/>
<circle cx="67.8525" cy="61.05" r="23.25" stroke="#141414" stroke-opacity="0.3" stroke-width="6"/>
<mask id="path-4-outside-1_967_1489" maskUnits="userSpaceOnUse" x="54.9023" y="46.7" width="26" height="29" fill="black">
<rect fill="white" x="54.9023" y="46.7" width="26" height="29"/>
<path d="M73.2374 58.0374C73.0177 55.5472 71.3331 53.8992 68.5133 53.8992C64.8512 53.8992 62.7638 56.7191 62.7638 61.4432C62.7638 66.4236 64.8878 68.9871 68.4767 68.9871C71.15 68.9871 72.8712 67.5223 73.2374 65.1785L80.3053 65.2518C79.9391 69.7928 75.9474 75.0662 68.3302 75.0662C61.0426 75.0662 55.586 70.2322 55.586 61.4432C55.586 52.6175 61.1891 47.8201 68.3302 47.8201C74.922 47.8201 79.7193 51.5189 80.3053 58.0374H73.2374Z"/>
</mask>
<path d="M73.2374 58.0374C73.0177 55.5472 71.3331 53.8992 68.5133 53.8992C64.8512 53.8992 62.7638 56.7191 62.7638 61.4432C62.7638 66.4236 64.8878 68.9871 68.4767 68.9871C71.15 68.9871 72.8712 67.5223 73.2374 65.1785L80.3053 65.2518C79.9391 69.7928 75.9474 75.0662 68.3302 75.0662C61.0426 75.0662 55.586 70.2322 55.586 61.4432C55.586 52.6175 61.1891 47.8201 68.3302 47.8201C74.922 47.8201 79.7193 51.5189 80.3053 58.0374H73.2374Z" fill="#141414" fill-opacity="0.3"/>
<path d="M73.2374 58.0374L73.088 58.0506L73.1001 58.1874H73.2374V58.0374ZM73.2374 65.1785L73.239 65.0285L73.1092 65.0272L73.0892 65.1554L73.2374 65.1785ZM80.3053 65.2518L80.4548 65.2638L80.4677 65.1034L80.3068 65.1018L80.3053 65.2518ZM80.3053 58.0374V58.1874H80.4694L80.4547 58.024L80.3053 58.0374ZM73.3868 58.0242C73.2742 56.748 72.7847 55.6759 71.9509 54.9231C71.1172 54.1704 69.9528 53.7492 68.5133 53.7492V54.0492C69.8935 54.0492 70.9814 54.452 71.7499 55.1458C72.5183 55.8396 72.9809 56.8366 73.088 58.0506L73.3868 58.0242ZM68.5133 53.7492C66.6392 53.7492 65.1559 54.4732 64.1456 55.8092C63.1396 57.1396 62.6138 59.0617 62.6138 61.4432H62.9138C62.9138 59.1005 63.4317 57.2507 64.3849 55.9901C65.3338 54.7352 66.7252 54.0492 68.5133 54.0492V53.7492ZM62.6138 61.4432C62.6138 63.9517 63.1482 65.8752 64.1558 67.1747C65.168 68.4801 66.643 69.1371 68.4767 69.1371V68.8371C66.7215 68.8371 65.34 68.2124 64.3929 66.9909C63.4413 65.7636 62.9138 63.9151 62.9138 61.4432H62.6138ZM68.4767 69.1371C69.8408 69.1371 70.9749 68.7631 71.8169 68.0781C72.6594 67.3926 73.1975 66.4053 73.3856 65.2017L73.0892 65.1554C72.9111 66.2955 72.4055 67.2125 71.6275 67.8454C70.849 68.4788 69.7858 68.8371 68.4767 68.8371V69.1371ZM73.2358 65.3285L80.3037 65.4018L80.3068 65.1018L73.239 65.0285L73.2358 65.3285ZM80.1558 65.2397C79.7956 69.7061 75.866 74.9162 68.3302 74.9162V75.2162C76.0288 75.2162 80.0826 69.8795 80.4548 65.2638L80.1558 65.2397ZM68.3302 74.9162C64.72 74.9162 61.5747 73.7195 59.3321 71.4453C57.0897 69.1713 55.736 65.8061 55.736 61.4432H55.436C55.436 65.8693 56.8107 69.3156 59.1185 71.6559C61.426 73.996 64.6528 75.2162 68.3302 75.2162V74.9162ZM55.736 61.4432C55.736 57.0629 57.1257 53.6977 59.3865 51.4279C61.6477 49.1576 64.7935 47.9701 68.3302 47.9701V47.6701C64.7257 47.6701 61.4994 48.8814 59.1739 51.2162C56.8479 53.5515 55.436 56.9977 55.436 61.4432H55.736ZM68.3302 47.9701C71.5985 47.9701 74.4097 48.8869 76.4741 50.5998C78.537 52.3113 79.8661 54.8274 80.1559 58.0508L80.4547 58.024C80.1585 54.7289 78.796 52.1363 76.6657 50.3689C74.537 48.6027 71.6537 47.6701 68.3302 47.6701V47.9701ZM80.3053 57.8874H73.2374V58.1874H80.3053V57.8874Z" fill="#141414" fill-opacity="0.3" mask="url(#path-4-outside-1_967_1489)"/>
</svg>
