<svg width="81" height="80" viewBox="0 0 81 80" fill="none" xmlns="http://www.w3.org/2000/svg">
<mask id="mask0_924_11049" style="mask-type:alpha" maskUnits="userSpaceOnUse" x="0" y="0" width="81" height="80">
<path d="M80.75 0H0.75V80H80.75V0Z" fill="#FF0000"/>
</mask>
<g mask="url(#mask0_924_11049)">
<path d="M17.8242 26.0762C17.8242 13.1477 28.3049 2.66699 41.2334 2.66699C54.162 2.66699 64.6427 13.1477 64.6427 26.0762V30.1193C64.6427 43.0479 54.162 53.5286 41.2334 53.5286C28.3049 53.5286 17.8242 43.0479 17.8242 30.1193V26.0762Z" fill="#6D4F3D"/>
<path d="M63.9509 77.3337C66.6018 77.3337 68.8033 75.1579 68.2061 72.5751C67.8492 71.0314 67.3186 69.5178 66.6194 68.0564C65.2123 65.1151 63.1498 62.4426 60.5497 60.1914C57.9496 57.9402 54.8629 56.1545 51.4657 54.9362C48.0686 53.7179 44.4275 53.0908 40.7504 53.0908C37.0734 53.0908 33.4323 53.7179 30.0351 54.9362C26.638 56.1545 23.5512 57.9402 20.9511 60.1914C18.3511 62.4426 16.2886 65.1151 14.8814 68.0564C14.1822 69.5178 13.6516 71.0314 13.2947 72.5751C12.6975 75.1579 14.899 77.3337 17.55 77.3337H40.7504H63.9509Z" fill="#FFAAB5"/>
<path d="M35.3906 47.2754H46.1199V55.4868C46.1199 58.4496 43.718 60.8514 40.7552 60.8514C37.7924 60.8514 35.3906 58.4496 35.3906 55.4868V47.2754Z" fill="#FFDECF"/>
<path d="M46.1199 49.2148H35.3906C38.1283 52.6788 43.3822 52.6788 46.1199 49.2148Z" fill="#EDC0AC"/>
<path fill-rule="evenodd" clip-rule="evenodd" d="M25.1412 25.931C33.0266 25.6711 38.434 19.4071 40.1779 16.2422C44.2623 23.7945 52.367 25.8233 56.1877 25.9358C56.3417 26.6585 56.462 27.3976 56.5466 28.1504C57.0357 28.0367 57.5406 28.0364 58.0352 28.1687C59.9954 28.693 61.0522 31.1006 60.3957 33.5463C59.7589 35.9183 57.7443 37.455 55.8352 37.0671C53.6788 44.6971 47.7009 50.1833 40.664 50.1833C33.5958 50.1833 27.5961 44.6483 25.4642 36.9653C23.9537 37.0549 22.2989 36.1017 21.3323 34.4305C20.0639 32.2377 20.4605 29.6391 22.2179 28.6263C22.9844 28.1846 23.8832 28.1175 24.7583 28.3642C24.8437 27.5358 24.9723 26.7236 25.1412 25.931Z" fill="#FFDECF"/>
<path opacity="0.4" d="M31.5352 38.0185C33.7444 38.0185 35.5353 36.499 35.5353 34.6245C35.5353 32.75 33.7444 31.2305 31.5352 31.2305C29.326 31.2305 27.5351 32.75 27.5351 34.6245C27.5351 36.499 29.326 38.0185 31.5352 38.0185Z" fill="#FFA1AB"/>
<path opacity="0.4" d="M49.6348 38.0185C51.844 38.0185 53.6349 36.499 53.6349 34.6245C53.6349 32.75 51.844 31.2305 49.6348 31.2305C47.4256 31.2305 45.6347 32.75 45.6347 34.6245C45.6347 36.499 47.4256 38.0185 49.6348 38.0185Z" fill="#FFA1AB"/>
<path d="M34.1097 28.4043H34.1097C33.4785 28.4043 32.9668 28.916 32.9668 29.5472V31.2211C32.9668 31.8523 33.4785 32.364 34.1097 32.364H34.1097C34.7409 32.364 35.2525 31.8523 35.2525 31.2211V29.5472C35.2525 28.916 34.7409 28.4043 34.1097 28.4043Z" fill="#425461"/>
<path d="M47.0609 28.4043H47.0609C46.4297 28.4043 45.918 28.916 45.918 29.5472V31.2211C45.918 31.8523 46.4297 32.364 47.0609 32.364H47.0609C47.6921 32.364 48.2038 31.8523 48.2038 31.2211V29.5472C48.2038 28.916 47.6921 28.4043 47.0609 28.4043Z" fill="#425461"/>
<path fill-rule="evenodd" clip-rule="evenodd" d="M37.787 38.9842C38.1671 38.8056 38.6215 38.9658 38.802 39.3421C39.0145 39.7855 39.6678 40.2312 40.5899 40.2312C41.5119 40.2312 42.1652 39.7855 42.3778 39.3421C42.5582 38.9658 43.0127 38.8056 43.3928 38.9842C43.773 39.1628 43.9349 39.6126 43.7544 39.9889C43.2284 41.086 41.9431 41.7397 40.5899 41.7397C39.2367 41.7397 37.9513 41.086 37.4253 39.9889C37.2449 39.6126 37.4068 39.1628 37.787 38.9842Z" fill="#425461"/>
<path d="M40.3514 60.8544C36.2463 56.995 35.3753 53.5693 35.3753 53.5693C33.9155 53.8389 32.4824 54.1925 31.1387 54.6396C31.1387 54.6396 31.5722 60.1934 37.0785 63.1133C38.452 63.8417 40.6228 61.1095 40.3514 60.8544Z" fill="white"/>
<path d="M41.1486 60.8544C45.2537 56.995 46.1247 53.5693 46.1247 53.5693C47.5845 53.8389 49.0176 54.1925 50.3613 54.6396C50.3613 54.6396 49.9278 60.1934 44.4215 63.1133C43.048 63.8417 40.8772 61.1095 41.1486 60.8544Z" fill="white"/>
</g>
</svg>
