<svg width="56" height="75" viewBox="0 0 56 75" fill="none" xmlns="http://www.w3.org/2000/svg">
<path d="M48.7211 13.7657C51.4931 25.2496 47.25 38 42.25 39L14.25 39.0104C9.795 36.535 7.6359 30.4304 7.1411 28.6151C3.1811 11.5873 12.0911 5.02034 17.0411 3.86535C16.2491 3.07336 16.0511 1.22538 16.0511 0.400391C21.9911 2.38037 27.1061 1.88582 28.9211 1.39104C36.4451 0.599051 40.6361 5.68084 41.7911 8.3207C45.7511 7.5287 48.0611 11.6207 48.7211 13.7657Z" fill="#45454C"/>
<path d="M8.7867 3.79868C11.25 4.50002 15.69 4.43158 17.1082 3.75281L13.3155 7.85952L8.7867 3.79868Z" fill="#45454C"/>
<path d="M48.75 14C49.0556 15.3751 50.1455 18.0947 52.1738 18.8463L52.75 19C52.5501 18.9667 52.3581 18.9146 52.1738 18.8463L45.25 17L48.75 14Z" fill="#45454C"/>
<path d="M51.45 74.333C54.101 74.333 56.3032 72.1562 55.6945 69.5761C55.3377 68.0638 54.8108 66.5809 54.1186 65.1486C52.7115 62.2368 50.649 59.591 48.049 57.3624C45.4489 55.1338 42.3623 53.366 38.9651 52.1599C35.568 50.9538 31.927 50.333 28.25 50.333C24.573 50.333 20.932 50.9538 17.5349 52.1599C14.1377 53.366 11.051 55.1338 8.451 57.3624C5.851 59.5911 3.7885 62.2368 2.3814 65.1486C1.6892 66.5809 1.1623 68.0638 0.805499 69.5761C0.196799 72.1562 2.399 74.333 5.05 74.333H28.25H51.45Z" fill="#2F4262"/>
<path d="M22.8906 44.2744H33.6199V52.4858C33.6199 55.4486 31.218 57.8504 28.2552 57.8504C25.2924 57.8504 22.8906 55.4486 22.8906 52.4858V44.2744Z" fill="#FFDECF"/>
<path d="M33.6199 46.2148H22.8906C25.6283 49.6788 30.8822 49.6788 33.6199 46.2148Z" fill="#EDC0AC"/>
<path d="M42.5146 22.4214C43.163 23.4498 43.9916 24.6779 44.0447 25.15C44.5337 25.0364 45.0386 25.0361 45.5333 25.1684C47.4934 25.6926 48.5502 28.1003 47.8937 30.546C47.257 32.918 45.2424 34.4547 43.3333 34.0668C41.1769 41.6968 35.199 47.1829 28.162 47.1829C21.0938 47.1829 15.0941 41.6479 12.9623 33.965C11.4517 34.0545 9.797 33.1014 8.8303 31.4302C7.562 29.2374 7.9585 26.6388 9.7159 25.626C10.4824 25.1843 11.3812 25.1172 12.2564 25.3639C12.3114 24.8303 13.26 23.5024 13.9733 22.4131C14.4904 21.6235 15.4247 21 16.3686 21H20.25L22.25 19L24.25 21H40.1311C41.0751 21 42.011 21.6229 42.5146 22.4214Z" fill="#FFDECF"/>
<mask id="mask0_924_11051" style="mask-type:alpha" maskUnits="userSpaceOnUse" x="0" y="50" width="56" height="25">
<path d="M51.45 74.333C54.101 74.333 56.3032 72.1562 55.6945 69.5761C55.3377 68.0638 54.8108 66.5809 54.1186 65.1486C52.7115 62.2368 50.649 59.5911 48.049 57.3624C45.4489 55.1338 42.3623 53.366 38.9651 52.1599C35.568 50.9538 31.927 50.333 28.25 50.333C24.573 50.333 20.932 50.9538 17.5349 52.1599C14.1377 53.366 11.0511 55.1338 8.451 57.3624C5.851 59.5911 3.7885 62.2368 2.3814 65.1486C1.6892 66.5809 1.1623 68.0638 0.805499 69.5761C0.196799 72.1562 2.399 74.333 5.05 74.333H28.25H51.45Z" fill="#2F4262"/>
</mask>
<g mask="url(#mask0_924_11051)">
<path d="M31.231 57.666H25.584L21.584 59.6127L26.5252 74.3327H29.3487L33.584 61.5327L31.231 57.666Z" fill="#AAAAAA"/>
<path d="M25.25 70.9993L26.5748 61.666H29.75L31.25 70.9993L29.584 74.3327H26.9173L25.25 70.9993Z" fill="#DA1A60"/>
<path d="M30.3814 60.9488L30.6372 58.9025C30.7011 58.3908 30.3656 57.9144 29.8622 57.8023L29.3574 57.6899C29.286 57.674 29.2131 57.666 29.14 57.666H27.3329C27.2777 57.666 27.2226 57.6706 27.1682 57.6797L26.3183 57.8216C25.7426 57.9177 25.3712 58.4845 25.5129 59.0507L26.0235 61.0913C26.1571 61.6254 26.637 62 27.1876 62H29.1907C29.7958 62 30.3063 61.5494 30.3814 60.9488Z" fill="#FF1F70"/>
<path d="M18.2507 61L15.584 52.3333L18.9173 51L24.2507 60.3333L27.584 76.3333L20.2507 63.6667L22.9173 61.6667L18.2507 61Z" fill="#D9D9D9"/>
<path d="M38.621 61.666L41.584 52.9993L37.8803 51.666L31.9544 60.9993L28.2507 76.9993L36.3988 64.3327L33.4358 62.3327L38.621 61.666Z" fill="#D9D9D9"/>
</g>
<path opacity="0.4" d="M19.0333 35.0175C21.2425 35.0175 23.0334 33.498 23.0334 31.6235C23.0334 29.749 21.2425 28.2295 19.0333 28.2295C16.8241 28.2295 15.0332 29.749 15.0332 31.6235C15.0332 33.498 16.8241 35.0175 19.0333 35.0175Z" fill="#FFA1AB"/>
<path opacity="0.4" d="M37.1329 35.0175C39.3421 35.0175 41.133 33.498 41.133 31.6235C41.133 29.749 39.3421 28.2295 37.1329 28.2295C34.9237 28.2295 33.1328 29.749 33.1328 31.6235C33.1328 33.498 34.9237 35.0175 37.1329 35.0175Z" fill="#FFA1AB"/>
<path d="M21.6077 25.4033H21.6077C20.9765 25.4033 20.4648 25.915 20.4648 26.5462V28.2201C20.4648 28.8513 20.9765 29.363 21.6077 29.363H21.6077C22.2389 29.363 22.7505 28.8513 22.7505 28.2201V26.5462C22.7505 25.915 22.2389 25.4033 21.6077 25.4033Z" fill="#425461"/>
<path d="M34.5589 25.4033H34.5589C33.9277 25.4033 33.416 25.915 33.416 26.5462V28.2201C33.416 28.8513 33.9277 29.363 34.5589 29.363H34.5589C35.1901 29.363 35.7018 28.8513 35.7018 28.2201V26.5462C35.7018 25.915 35.1901 25.4033 34.5589 25.4033Z" fill="#425461"/>
<path fill-rule="evenodd" clip-rule="evenodd" d="M25.285 35.9832C25.6651 35.8046 26.1196 35.9648 26.3 36.3412C26.5126 36.7845 27.1659 37.2302 28.0879 37.2302C29.01 37.2302 29.6633 36.7845 29.8758 36.3412C30.0563 35.9648 30.5107 35.8046 30.8909 35.9832C31.271 36.1618 31.4329 36.6117 31.2525 36.988C30.7265 38.085 29.4412 38.7387 28.0879 38.7387C26.7347 38.7387 25.4494 38.085 24.9234 36.988C24.743 36.6117 24.9049 36.1618 25.285 35.9832Z" fill="#425461"/>
<path d="M27.8514 57.8534C23.7463 53.9941 22.8753 50.5684 22.8753 50.5684C21.4155 50.8379 19.9824 51.1915 18.6387 51.6386C18.6387 51.6386 22.2507 60.3327 24.2507 60.3327C26.2507 60.3327 28.1228 58.1086 27.8514 57.8534Z" fill="white"/>
<path d="M28.6486 57.8534C32.7537 53.9941 33.6247 50.5684 33.6247 50.5684C35.0845 50.8379 36.5176 51.1915 37.8613 51.6386C37.8613 51.6386 34.916 60.3327 32.2493 60.3327C29.5827 60.3327 28.3772 58.1086 28.6486 57.8534Z" fill="white"/>
</svg>
