<svg width="32" height="32" viewBox="0 0 32 32" fill="none" xmlns="http://www.w3.org/2000/svg">
<g clip-path="url(#clip0_2953_58068)">
<rect width="32" height="32" rx="4" fill="#AAAAAA"/>
<path d="M19.446 20.9978L16.6004 20.8128V20.7369L16.0037 20.7748L15.4006 20.7369V20.8137L12.555 20.9988L15.2725 25.5067C15.2943 25.5441 15.3189 25.5797 15.3461 25.6131C15.4118 25.7302 15.5067 25.8276 15.6211 25.8955C15.7355 25.9634 15.8654 25.9994 15.9978 25.9999C16.1302 26.0003 16.2604 25.9653 16.3753 25.8982C16.4901 25.8311 16.5857 25.7344 16.6522 25.6178C16.6822 25.5842 16.7078 25.5469 16.7285 25.5067L19.446 20.9978Z" fill="white"/>
<rect x="2" y="2.00006" width="28" height="20" rx="3" fill="white"/>
<path d="M8.21979 9.86107C7.66958 9.90314 7.15312 10.1475 6.76656 10.5487V7.77876H5.05176V15.0557H6.78382V14.4856C6.93979 14.7268 7.15433 14.9227 7.40659 15.0544C7.65884 15.1861 7.94023 15.249 8.22342 15.2371C8.5578 15.2228 8.88606 15.1409 9.18912 14.9963C9.49218 14.8516 9.764 14.647 9.98879 14.3944C10.2136 14.1417 10.3868 13.8461 10.4985 13.5246C10.6102 13.2032 10.6581 12.8623 10.6394 12.5218C10.6394 12.5218 10.5468 9.86107 8.21979 9.86107ZM7.84285 13.7018C7.62495 13.7018 7.41195 13.6359 7.23077 13.5126C7.04959 13.3892 6.90838 13.2139 6.82499 13.0088C6.74161 12.8037 6.7198 12.5779 6.76231 12.3602C6.80482 12.1424 6.90975 11.9424 7.06382 11.7854C7.2179 11.6284 7.41421 11.5215 7.62793 11.4781C7.84164 11.4348 8.06316 11.4571 8.26447 11.542C8.46579 11.627 8.63785 11.7709 8.75891 11.9555C8.87997 12.1401 8.94459 12.3571 8.94459 12.5792C8.94435 12.877 8.82807 13.1625 8.62132 13.373C8.41456 13.5835 8.13423 13.7018 7.84195 13.7018H7.84285Z" fill="#AAAAAA"/>
<path d="M11.1889 7.61583V9.29926C11.1889 9.29926 11.9709 9.26316 11.9709 10.7476V15.0557H13.623V10.3497C13.623 10.3497 13.6911 7.61583 11.1889 7.61583Z" fill="#AAAAAA"/>
<path d="M17.6602 9.88323C17.6602 9.88323 14.8282 9.88325 14.8282 12.5782C14.819 12.9496 14.8878 13.3187 15.03 13.6609C15.1722 14.003 15.3844 14.3102 15.6525 14.5619C15.9207 14.8137 16.2385 15.0042 16.5848 15.1206C16.931 15.237 17.2977 15.2767 17.6602 15.2371C17.6602 15.2371 20.5576 15.2371 20.5576 12.5782C20.5659 12.1996 20.4946 11.8236 20.3484 11.4754C20.2022 11.1272 19.9846 10.8149 19.7101 10.5596C19.4356 10.3043 19.1107 10.1118 18.7571 9.99516C18.4035 9.87849 18.0295 9.84032 17.6602 9.88323ZM17.6602 13.7008C17.4423 13.7008 17.2293 13.635 17.0481 13.5116C16.867 13.3883 16.7257 13.2129 16.6424 13.0078C16.559 12.8027 16.5371 12.5769 16.5797 12.3592C16.6222 12.1414 16.7271 11.9414 16.8812 11.7844C17.0353 11.6274 17.2316 11.5205 17.4453 11.4772C17.659 11.4339 17.8805 11.4561 18.0818 11.5411C18.2831 11.626 18.4552 11.7699 18.5762 11.9545C18.6973 12.1391 18.762 12.3562 18.762 12.5782C18.7623 12.7259 18.7341 12.8721 18.6789 13.0087C18.6236 13.1452 18.5425 13.2693 18.4402 13.3738C18.3379 13.4783 18.2163 13.5613 18.0825 13.6179C17.9486 13.6745 17.8051 13.7036 17.6602 13.7036V13.7008Z" fill="#AAAAAA"/>
<path d="M25.2879 10.0599V10.5477C25.11 10.3369 24.8891 10.1683 24.6406 10.0535C24.3921 9.93873 24.1221 9.88061 23.8493 9.8832C23.5102 9.87168 23.1727 9.93472 22.8597 10.068C22.5467 10.2014 22.2656 10.4019 22.0355 10.6558C21.8054 10.9098 21.6316 11.2113 21.5261 11.5398C21.4207 11.8684 21.3859 12.2162 21.4241 12.5596C21.4241 12.5596 21.3978 15.1509 23.7857 15.1509C24.0688 15.1573 24.3499 15.1011 24.6097 14.9862C24.8695 14.8714 25.1018 14.7006 25.2906 14.4855V14.8937C25.2906 14.8937 25.4105 16.1699 24.2007 16.1699H23.7829V17.7173H24.4487C24.7935 17.7206 25.1352 17.6509 25.4521 17.5126C25.7691 17.3742 26.0544 17.1703 26.2899 16.9137C26.5255 16.6571 26.706 16.3534 26.8203 16.0219C26.9346 15.6904 26.98 15.3384 26.9537 14.9881V10.0599H25.2879ZM24.2634 13.7008C24.0455 13.7008 23.8325 13.6349 23.6513 13.5116C23.4701 13.3882 23.3289 13.2129 23.2456 13.0078C23.1622 12.8026 23.1403 12.5769 23.1829 12.3592C23.2254 12.1414 23.3303 11.9413 23.4844 11.7843C23.6384 11.6274 23.8348 11.5204 24.0485 11.4771C24.2622 11.4338 24.4837 11.456 24.685 11.541C24.8863 11.626 25.0584 11.7699 25.1794 11.9545C25.3005 12.1391 25.3652 12.3561 25.3652 12.5781C25.3652 12.8759 25.2491 13.1614 25.0425 13.3719C24.8358 13.5825 24.5556 13.7008 24.2634 13.7008Z" fill="#AAAAAA"/>
</g>
<defs>
<clipPath id="clip0_2953_58068">
<rect width="32" height="32" fill="white"/>
</clipPath>
</defs>
</svg>
