<svg width="32" height="32" viewBox="0 0 32 32" fill="none" xmlns="http://www.w3.org/2000/svg">
<g clip-path="url(#clip0_2953_58063)">
<rect width="32" height="32" rx="4" fill="#F8F8F8"/>
<path d="M16.0001 5.34766C9.92603 5.34766 5.00177 9.23036 5.00177 14.0193C5.00177 17.1153 7.06006 19.8324 10.1569 21.3665C9.98845 21.9479 9.07399 25.1041 9.03789 25.3523C9.03789 25.3523 9.01608 25.5388 9.1364 25.6095C9.17676 25.6299 9.22087 25.6418 9.266 25.6445C9.31113 25.6472 9.35635 25.6407 9.39886 25.6253C9.74479 25.5771 13.4117 23.0014 14.0464 22.554C14.6941 22.6452 15.3475 22.6907 16.0016 22.6901C22.0757 22.6901 27 18.8074 27 14.0185C27 9.22961 22.0727 5.34766 16.0001 5.34766Z" fill="#AAAAAA"/>
<path d="M9.91925 17.0462C9.75475 17.0498 9.59553 16.988 9.47653 16.8744C9.35754 16.7607 9.28849 16.6045 9.28455 16.44V12.6701H8.29488C8.13013 12.6701 7.97214 12.6047 7.85564 12.4882C7.73915 12.3717 7.67371 12.2137 7.67371 12.049C7.67371 11.8842 7.73915 11.7262 7.85564 11.6097C7.97214 11.4932 8.13013 11.4278 8.29488 11.4278H11.5451C11.7099 11.4278 11.8679 11.4932 11.9844 11.6097C12.1009 11.7262 12.1663 11.8842 12.1663 12.049C12.1663 12.2137 12.1009 12.3717 11.9844 12.4882C11.8679 12.6047 11.7099 12.6701 11.5451 12.6701H10.554V16.44C10.55 16.6045 10.481 16.7607 10.362 16.8744C10.243 16.988 10.0838 17.0498 9.91925 17.0462ZM15.4842 17.0379C15.3783 17.0507 15.271 17.0307 15.1769 16.9806C15.0827 16.9304 15.0062 16.8525 14.9578 16.7574L14.6435 15.9347H12.7063L12.3919 16.7574C12.3434 16.8523 12.2669 16.9301 12.1727 16.9801C12.0786 17.0302 11.9713 17.0501 11.8655 17.0372C11.7264 17.0374 11.5889 17.0076 11.4624 16.9499C11.2872 16.8695 11.1195 16.6491 11.312 16.0475L12.8296 12.0527C12.8846 11.8713 12.9965 11.7123 13.1488 11.5993C13.301 11.4864 13.4856 11.4254 13.6752 11.4254C13.8649 11.4254 14.0494 11.4864 14.2017 11.5993C14.354 11.7123 14.4659 11.8713 14.5209 12.0527L16.0377 16.046C16.231 16.6476 16.0625 16.8679 15.8873 16.9484C15.7608 17.006 15.6233 17.0358 15.4842 17.0356V17.0379ZM14.3073 14.8119L13.6734 13.007L13.0402 14.8119H14.3081H14.3073ZM17.0575 16.9544C16.8998 16.9577 16.7473 16.8983 16.6333 16.7894C16.5193 16.6804 16.453 16.5308 16.4491 16.3731V12.064C16.4548 11.896 16.5256 11.7368 16.6465 11.62C16.7673 11.5031 16.9289 11.4378 17.097 11.4378C17.2651 11.4378 17.4266 11.5031 17.5475 11.62C17.6683 11.7368 17.7391 11.896 17.7448 12.064V15.7895H19.0932C19.1714 15.7867 19.2493 15.7997 19.3223 15.8277C19.3953 15.8556 19.462 15.898 19.5182 15.9523C19.5745 16.0066 19.6193 16.0717 19.6499 16.1437C19.6804 16.2156 19.6962 16.293 19.6962 16.3712C19.6962 16.4494 19.6804 16.5268 19.6499 16.5988C19.6193 16.6708 19.5745 16.7359 19.5182 16.7901C19.462 16.8444 19.3953 16.8868 19.3223 16.9148C19.2493 16.9428 19.1714 16.9557 19.0932 16.9529L17.0575 16.9544ZM20.583 17.0387C20.4147 17.0385 20.2534 16.9715 20.1344 16.8525C20.0154 16.7335 19.9485 16.5722 19.9483 16.4039V12.0625C19.9483 11.8942 20.0151 11.7327 20.1342 11.6137C20.2532 11.4947 20.4146 11.4278 20.583 11.4278C20.7513 11.4278 20.9127 11.4947 21.0318 11.6137C21.1508 11.7327 21.2177 11.8942 21.2177 12.0625V13.4267L22.9879 11.6534C23.0344 11.6078 23.0894 11.5717 23.1498 11.5475C23.2102 11.5232 23.2748 11.5112 23.3399 11.512C23.4982 11.5161 23.6494 11.5786 23.7645 11.6874C23.8796 11.7962 23.9504 11.9438 23.9633 12.1016C23.9691 12.1723 23.9596 12.2434 23.9355 12.3101C23.9114 12.3768 23.8731 12.4375 23.8234 12.4882L22.3743 13.9366L23.9362 16.0054C24.0315 16.1401 24.0706 16.3065 24.0452 16.4695C24.0198 16.6325 23.9319 16.7793 23.8002 16.8786C23.6685 16.9779 23.5033 17.0221 23.3396 17.0017C23.1759 16.9813 23.0266 16.898 22.9233 16.7694L21.435 14.7976L21.2147 15.018V16.4024C21.2147 16.5703 21.1482 16.7314 21.0299 16.8505C20.9115 16.9695 20.7509 17.0369 20.583 17.0379V17.0387Z" fill="#F0F0F0"/>
</g>
<defs>
<clipPath id="clip0_2953_58063">
<rect width="32" height="32" fill="white"/>
</clipPath>
</defs>
</svg>
